<?xml version="1.0" encoding="UTF-8"?>
<svg id="Layer_2" data-name="Layer 2" xmlns="http://www.w3.org/2000/svg" viewBox="0 0 181.37 54">
  <defs>
    <style>
      .cls-1, .cls-2 {
        fill: #000;
        stroke-width: 0px;
      }

      .cls-2 {
        opacity: .99;
      }
    </style>
  </defs>
  <g id="Black_Full_Logo" data-name="Black Full Logo">
    <g>
      <path class="cls-1" d="M45.72,32.13l2.02-.77c.5,1.92,2.02,3.02,4.22,3.02s3.62-1.05,3.62-2.75c0-4.65-9.07-2.75-9.07-8.75,0-2.65,2.05-4.5,5.45-4.5,2.92,0,4.85,1.38,5.5,3.62l-2.02.77c-.52-1.75-1.7-2.55-3.55-2.55-2.1,0-3.25,1.03-3.25,2.45,0,4.4,9.1,2.4,9.1,8.87,0,2.82-2.32,4.7-5.92,4.7-3.12,0-5.35-1.5-6.1-4.12Z"/>
      <path class="cls-1" d="M73.17,22.83v17.65h-2.12v-6.65c-1.05,1.53-2.72,2.45-4.8,2.45-3.72,0-6.47-2.92-6.47-6.85s2.67-6.87,6.42-6.87c2.2,0,3.95,1.02,5,2.72v-2.45h1.97ZM71.12,29.43c0-2.92-1.9-5-4.62-5s-4.62,2.12-4.62,5,1.97,4.97,4.62,4.97,4.62-2.05,4.62-4.97Z"/>
      <path class="cls-1" d="M88.22,22.83v13.17h-2.02v-1.88c-.87,1.23-2.45,2.15-4.4,2.15-3.37,0-5.25-2.2-5.25-5.32v-8.12h2.12v7.87c0,2.22,1.42,3.7,3.67,3.67,2.22,0,3.72-1.6,3.75-3.27v-8.27h2.12Z"/>
      <path class="cls-1" d="M104.35,22.83v13.17h-1.97v-2.52c-1,1.75-2.72,2.8-4.95,2.8-3.75,0-6.47-2.92-6.47-6.87s2.75-6.72,6.47-6.72c2.22,0,3.95,1,4.95,2.7v-2.55h1.97ZM102.3,29.4c0-2.92-1.87-4.97-4.62-4.97s-4.62,2.15-4.62,4.97,1.97,5,4.62,5,4.62-2.05,4.62-5Z"/>
      <path class="cls-1" d="M114.1,22.55v1.97c-2.4.03-4.07,1.65-4.07,3.52v7.95h-2.12v-13.17h2v1.92c.85-1.22,2.35-2.2,4.2-2.2Z"/>
      <path class="cls-1" d="M121.62,34.3c2.15,0,3.35-.83,4-2.35l1.85,1.12c-.98,1.87-2.8,3.22-5.92,3.22-4.05,0-6.8-2.95-6.8-6.87s2.92-6.9,6.65-6.9c3.97,0,6.5,3.12,6.5,6.6,0,.38-.02.82-.05,1.07h-10.95c.38,2.45,2.3,4.1,4.72,4.1ZM125.72,28.35c-.33-2.47-2.05-3.97-4.25-3.97s-4.15,1.47-4.55,3.97h8.8Z"/>
      <path class="cls-1" d="M143.3,18.63v17.37h-.42l-11.15-16.5v16.5h-.47v-17.37h.42l11.15,16.47v-16.47h.47Z"/>
      <path class="cls-1" d="M159.22,29.1v.42h-11.92c.05,3.6,2.55,6.27,5.87,6.27,2.77,0,4.65-1.22,5.45-3.62l.42.17c-.85,2.52-2.92,3.9-5.87,3.9-3.65,0-6.35-2.9-6.35-6.82s2.75-6.85,6.35-6.85,6.05,2.72,6.05,6.52ZM158.75,29.08v-.03c0-3.52-2.32-6.02-5.57-6.02s-5.7,2.6-5.87,6.05h11.45Z"/>
      <path class="cls-1" d="M161.62,29.43c0-3.95,2.72-6.85,6.57-6.85s6.55,2.9,6.55,6.85-2.72,6.82-6.55,6.82-6.57-2.9-6.57-6.82ZM174.27,29.43c0-3.72-2.5-6.4-6.07-6.4s-6.1,2.67-6.1,6.4,2.52,6.37,6.1,6.37,6.07-2.7,6.07-6.37Z"/>
    </g>
    <g id="Icon_Black" data-name="Icon Black">
      <g>
        <rect class="cls-2" x="23.4" y="1.43" width="9.91" height="9.91" rx="1.31" ry="1.31" transform="translate(1.47 17.42) rotate(-35)"/>
        <rect class="cls-2" x="14.94" y="7.49" width="9.91" height="9.91" rx="1.31" ry="1.31" transform="translate(-3.54 13.66) rotate(-35)"/>
        <rect class="cls-2" x="6.41" y="13.47" width="9.91" height="9.91" rx="1.31" ry="1.31" transform="translate(-8.51 9.85) rotate(-35)"/>
      </g>
      <g>
        <rect class="cls-2" x="20.91" y="16.03" width="9.91" height="9.91" rx="1.31" ry="1.31" transform="translate(-7.36 18.63) rotate(-35)"/>
        <rect class="cls-2" x="12.46" y="22.09" width="9.91" height="9.91" rx="1.31" ry="1.31" transform="translate(-12.36 14.88) rotate(-35)"/>
        <rect class="cls-2" x="3.92" y="28.06" width="9.91" height="9.91" rx="1.31" ry="1.31" transform="translate(-17.33 11.06) rotate(-35)"/>
      </g>
      <g>
        <rect class="cls-2" x="18.42" y="30.63" width="9.91" height="9.91" rx="1.31" ry="1.31" transform="translate(-16.18 19.84) rotate(-35)"/>
        <rect class="cls-2" x="9.97" y="36.68" width="9.91" height="9.91" rx="1.31" ry="1.31" transform="translate(-21.18 16.09) rotate(-35)"/>
        <rect class="cls-2" x="1.43" y="42.66" width="9.91" height="9.91" rx="1.31" ry="1.31" transform="translate(-26.16 12.27) rotate(-35)"/>
      </g>
    </g>
  </g>
</svg>